# xmcd
#
# Track frame offsets: 
#        150
#        2778
#        20517
#        35551
#        55270
#        75827
#        95980
#        114816
#        133178
#        151426
#        170314
#        188881
#        208932
#        226985
#        242455
#
# Disc length: 3563 seconds
#
# Revision: 0
# Processed by: cddbd v1.5.2PL0 Copyright (c) Steve Scherf et al.
# Submitted via: ExactAudioCopy v0.99pb5
#
DISCID=bc0de90f
DTITLE=Sideways Entertainment Presents - The Komp
DYEAR=2002
DGENRE=Rap
TTITLE0=Intro
TTITLE1=Real In These Streetz - T-Nutty, T. Beta, Macnificent
TTITLE2=Its On Again - Black Sancho, Vest, Walt
TTITLE3=NI%%@z Like Me - Sic Related
TTITLE4=6-1-9-1-6 - Luni Coleone, R. Beta, Nick Bolo, Gene
TTITLE5=Problemz - The Charge-Herz
TTITLE6=Diggin Ya Girl - Boss Hogg
TTITLE7=Gutter S#*T
TTITLE8=How Many Times - Shuga Shaft
TTITLE9=Dipped The Most - R. Beta, Silas, C-Gigalo, Boss Hogg
TTITLE10=Been At This - Mac Dre, Macnificent, Nick Bolo, I-Rocc
TTITLE11=They Dont Know - Silas, Mad Dogg
TTITLE12=This That Knock - Luv 50
TTITLE13=No More Lies - Andra and C-Gigalo
TTITLE14=Never Change - The Charge-Herz
EXTD=
EXTT0=
EXTT1=
EXTT2=
EXTT3=
EXTT4=
EXTT5=
EXTT6=
EXTT7=
EXTT8=
EXTT9=
EXTT10=
EXTT11=
EXTT12=
EXTT13=
EXTT14=
PLAYORDER=
